<?xml version="1.0" standalone="no"?>
<!DOCTYPE svg PUBLIC "-//W3C//DTD SVG 20010904//EN"
 "http://www.w3.org/TR/2001/REC-SVG-20010904/DTD/svg10.dtd">
<svg version="1.0" xmlns="http://www.w3.org/2000/svg"
 width="1920.000000pt" height="1080.000000pt" viewBox="0 0 1920.000000 1080.000000"
 preserveAspectRatio="xMidYMid meet">
<metadata>
Created by potrace 1.15, written by Peter Selinger 2001-2017
</metadata>
<g transform="translate(0.000000,1080.000000) scale(0.100000,-0.100000)"
fill="#000000" stroke="none">
<path d="M16040 9748 c-65 -34 -85 -67 -85 -143 0 -74 19 -108 79 -140 l38
-20 -6 -730 c-3 -401 -9 -1034 -12 -1405 l-7 -676 499 -469 c274 -259 556
-524 626 -590 70 -66 352 -331 627 -590 l500 -470 1 -1407 0 -1406 193 -169
c105 -93 308 -272 450 -397 l258 -227 -3 64 -3 65 -402 351 -403 352 -1 1407
-1 1407 -92 85 c-50 47 -359 337 -686 645 -327 308 -754 710 -950 894 -195
184 -393 370 -438 415 l-84 80 16 1385 16 1385 35 29 c85 69 90 182 13 254
-51 48 -111 55 -178 21z m114 -42 c45 -19 66 -52 66 -102 0 -81 -80 -134 -152
-100 -87 41 -89 158 -4 200 39 19 48 19 90 2z"/>
<path d="M15593 9471 c-70 -33 -107 -116 -84 -191 10 -33 69 -100 98 -111 10
-4 23 -1227 23 -2166 l0 -441 712 -674 c392 -370 834 -788 983 -929 148 -140
331 -312 405 -382 l135 -128 5 -1412 5 -1412 190 -163 c824 -711 1101 -949
1117 -960 18 -13 19 -11 16 47 l-3 61 -615 528 -615 527 -5 1411 -5 1411 -554
524 c-305 288 -807 763 -1115 1054 l-561 531 -3 1282 -2 1282 49 47 c41 40 50
56 56 95 19 128 -114 224 -232 169z m140 -58 c80 -71 37 -193 -68 -193 -27 0
-51 7 -68 20 -30 24 -51 80 -42 112 9 28 43 67 70 79 28 12 84 3 108 -18z"/>
<path d="M11550 9098 c-57 -39 -75 -72 -75 -138 0 -63 16 -95 67 -133 33 -25
105 -33 152 -17 36 12 39 11 99 -36 34 -27 433 -341 887 -699 454 -358 1061
-837 1350 -1065 289 -228 768 -606 1065 -840 297 -234 873 -689 1280 -1010
407 -321 831 -655 943 -743 l202 -160 0 -2129 0 -2128 52 0 51 0 -6 458 c-4
251 -7 1218 -7 2148 l0 1692 -617 488 c-1651 1306 -2557 2023 -3298 2609 -445
352 -1056 836 -1357 1074 l-547 432 5 42 c7 53 -27 122 -75 154 -47 32 -125
32 -171 1z m138 -42 c73 -38 73 -154 0 -192 -63 -33 -139 -2 -159 65 -28 94
70 173 159 127z"/>
<path d="M11923 7160 c-100 -45 -121 -180 -42 -259 66 -67 157 -66 225 2 22
23 43 47 45 54 3 8 171 13 641 18 l637 8 338 -264 c823 -641 2496 -1944 2968
-2312 476 -371 425 -330 430 -353 2 -11 4 -927 4 -2036 l1 -2018 51 0 51 0 -6
1488 c-3 818 -9 1744 -12 2059 l-6 571 -102 79 c-55 44 -339 266 -631 493
-291 228 -672 525 -845 660 -173 135 -740 578 -1258 983 l-944 737 -658 0
-657 0 -24 35 c-27 40 -91 75 -135 75 -16 0 -48 -9 -71 -20z m135 -56 c13 -9
30 -30 37 -49 37 -87 -52 -177 -139 -141 -73 30 -95 118 -44 174 42 45 93 51
146 16z"/>
<path d="M11482 5392 c-3 -10 -112 -296 -242 -637 l-236 -620 -43 -7 c-90 -15
-147 -90 -139 -180 15 -153 218 -198 298 -66 29 48 27 125 -4 171 l-25 36 220
603 c120 332 223 609 227 617 9 16 511 17 2502 4 l1005 -6 770 -600 c424 -330
823 -641 888 -691 l118 -91 -4 -1963 -5 -1962 49 0 49 0 0 1983 -1 1982 -396
310 c-449 352 -801 627 -1177 922 l-259 203 -1661 1 c-913 0 -1721 2 -1794 4
-117 3 -134 1 -140 -13z m-452 -1327 c40 -21 60 -53 60 -98 0 -72 -63 -123
-134 -110 -37 7 -86 67 -86 104 0 44 27 89 63 104 42 18 62 18 97 0z"/>
<path d="M14591 4223 c-50 -25 -83 -82 -83 -142 0 -92 54 -151 146 -159 64 -5
122 21 150 69 l17 29 537 -2 536 -3 288 -466 288 -467 2 -1053 c2 -580 4
-1273 6 -1541 l2 -488 50 0 50 0 0 43 c0 23 -5 724 -10 1557 l-10 1514 -267
426 c-147 234 -287 458 -311 498 l-45 72 -392 0 c-492 0 -725 8 -725 26 0 19
-49 73 -81 89 -37 20 -106 19 -148 -2z m135 -52 c63 -38 70 -128 13 -175 -52
-44 -142 -27 -168 31 -22 47 -14 92 23 129 40 40 83 45 132 15z"/>
<path d="M14291 3913 c-37 -8 -107 -84 -115 -126 -18 -98 62 -198 160 -197 48
1 112 36 135 75 l21 35 582 0 582 0 59 -97 c33 -54 126 -206 207 -338 l148
-240 0 -1512 0 -1513 45 0 45 0 0 1529 0 1530 -128 203 c-71 112 -174 276
-231 366 l-103 162 -598 0 -599 0 -22 40 c-13 23 -37 50 -54 60 -33 20 -95 31
-134 23z m116 -74 c49 -41 52 -117 7 -163 -71 -70 -184 -21 -184 80 0 51 28
90 73 102 34 9 79 1 104 -19z"/>
<path d="M13899 3567 c-61 -33 -94 -97 -84 -164 10 -67 71 -128 137 -138 61
-9 128 21 158 71 l22 34 661 0 662 0 123 -200 122 -200 0 -1485 0 -1485 50 0
50 0 0 1494 0 1494 -149 233 -149 234 -683 6 c-404 3 -684 9 -686 15 -13 37
-50 78 -86 94 -56 26 -95 25 -148 -3z m156 -67 c78 -79 -1 -209 -110 -178 -90
25 -105 142 -25 196 45 31 92 24 135 -18z"/>
<path d="M17900 1038 c-60 -31 -90 -77 -90 -140 0 -27 7 -62 15 -77 17 -34 70
-81 91 -81 12 0 14 -57 14 -370 l0 -370 50 0 50 0 0 367 0 366 39 34 c93 79
76 225 -33 274 -54 24 -82 24 -136 -3z m128 -51 c77 -38 62 -169 -22 -197 -71
-23 -135 18 -143 92 -10 97 74 150 165 105z"/>
<path d="M18340 729 c-119 -50 -136 -215 -28 -286 l38 -26 0 -208 0 -209 50 0
50 0 0 208 0 209 37 24 c128 85 78 284 -74 295 -26 2 -59 -1 -73 -7z m110 -54
c40 -21 60 -53 60 -98 0 -31 -7 -46 -34 -73 -28 -28 -42 -34 -76 -34 -34 0
-48 6 -76 34 -52 52 -44 128 18 166 39 24 69 25 108 5z"/>
<path d="M18814 451 c-53 -24 -86 -71 -92 -130 -6 -63 17 -114 67 -148 l40
-28 1 -72 0 -73 50 0 50 0 0 73 c1 70 2 73 32 92 62 40 92 107 77 174 -11 49
-39 83 -89 109 -53 27 -82 27 -136 3z m103 -41 c8 0 28 -14 44 -31 56 -60 32
-153 -46 -179 -72 -24 -145 30 -145 107 0 56 71 119 118 107 8 -2 20 -4 29 -4z"/>
</g>
</svg>
