<?xml version="1.0" encoding="UTF-8" standalone="no"?>
<svg
   xmlns:dc="http://purl.org/dc/elements/1.1/"
   xmlns:cc="http://creativecommons.org/ns#"
   xmlns:rdf="http://www.w3.org/1999/02/22-rdf-syntax-ns#"
   xmlns:svg="http://www.w3.org/2000/svg"
   xmlns="http://www.w3.org/2000/svg"
   xmlns:sodipodi="http://sodipodi.sourceforge.net/DTD/sodipodi-0.dtd"
   xmlns:inkscape="http://www.inkscape.org/namespaces/inkscape"
   width="400"
   height="400"
   preserveAspectRatio="xMidYMid meet"
   id="svg3409"
   version="1.1"
   inkscape:version="0.91 r13725"
   sodipodi:docname="logo_white.svg">
  <defs
     id="defs3426" />
  <sodipodi:namedview
     pagecolor="#ffffff"
     bordercolor="#666666"
     borderopacity="1"
     objecttolerance="10"
     gridtolerance="10"
     guidetolerance="10"
     inkscape:pageopacity="0"
     inkscape:pageshadow="2"
     inkscape:window-width="1920"
     inkscape:window-height="995"
     id="namedview3424"
     showgrid="false"
     inkscape:zoom="2.0225"
     inkscape:cx="200"
     inkscape:cy="200"
     inkscape:window-x="1920"
     inkscape:window-y="0"
     inkscape:window-maximized="1"
     inkscape:current-layer="svg3409" />
  <metadata
     id="metadata3411">Created by potrace 1.15, written by Peter Selinger 2001-2017<rdf:RDF>
  <cc:Work
     rdf:about="">
    <dc:format>image/svg+xml</dc:format>
    <dc:type
       rdf:resource="http://purl.org/dc/dcmitype/StillImage" />
    <dc:title></dc:title>
  </cc:Work>
</rdf:RDF>
</metadata>
  <g
     id="g3413">
    <title
       id="title3415">background</title>
    <rect
       fill="none"
       id="canvas_background"
       height="402"
       width="582"
       y="-1"
       x="-1" />
  </g>
  <g
     id="g3418"
     style="fill:#ffffff">
    <title
       id="title3420">Layer 1</title>
    <g
       id="svg_1"
       fill="#000000"
       transform="translate(0,400) scale(0.10000000149011612,-0.10000000149011612) "
       style="fill:#ffffff">
      <path
         fill="#00ffff"
         id="svg_2"
         d="m1829,3526c-2,-2 -40,-9 -84,-15c-44,-6 -93,-15 -110,-20c-212,-63 -309,-106 -460,-207c-330,-218 -556,-563 -641,-974c-23,-116 -24,-421 0,-535c73,-360 242,-656 498,-870c112,-95 186,-144 289,-195c46,-23 91,-45 99,-49c23,-12 207,-67 275,-82c82,-19 456,-19 545,0c181,38 257,64 415,143c243,123 443,310 593,556c173,282 247,637 196,934c-34,199 -80,325 -171,471l-43,67l-927,0c-612,0 -942,-4 -968,-11c-165,-43 -263,-177 -253,-346c4,-84 23,-123 136,-283c45,-63 134,-191 199,-283c65,-93 123,-174 128,-180c6,-7 19,-25 29,-42c11,-16 23,-34 28,-40c9,-10 298,-416 320,-449c7,-10 24,-32 37,-48c23,-28 24,-28 43,-11c16,15 418,553 468,627c8,12 40,56 71,97c31,41 78,106 104,144c27,39 51,72 54,75c6,5 55,75 115,164c14,21 26,43 26,47c0,5 -94,9 -209,9l-209,0l-36,-37c-29,-32 -174,-219 -226,-293c-84,-118 -165,-220 -176,-220c-7,0 -21,12 -31,28c-10,15 -22,32 -28,38c-5,6 -16,20 -22,30c-7,11 -52,73 -99,139c-165,230 -284,404 -284,415c0,17 1462,9 1482,-8c33,-27 50,-300 28,-442c-13,-76 -53,-212 -82,-272c-22,-47 -85,-154 -105,-178c-191,-237 -384,-365 -646,-427c-92,-22 -335,-24 -422,-4c-224,51 -381,136 -535,291c-211,211 -310,454 -310,761c0,114 17,236 45,314c113,321 345,568 640,681c133,50 209,64 363,64c249,0 426,-54 636,-195l82,-55l258,0l258,0l-28,48c-170,291 -562,543 -953,613c-96,17 -389,28 -402,15z"
         style="fill:#ffffff" />
    </g>
  </g>
</svg>
